<svg width="52" height="13" viewBox="0 0 52 13" fill="none" xmlns="http://www.w3.org/2000/svg">
<path d="M6.67808 6.45887C6.67808 7.57284 6.42466 8.44259 5.91781 9.06812C5.41096 9.68937 4.7032 10 3.79452 10C2.99087 10 2.34932 9.7108 1.86986 9.13239L1.78082 9.87147H0V0H1.97945V3.54113C2.43607 3.03985 3.03653 2.7892 3.78082 2.7892C4.68493 2.7892 5.39269 3.10197 5.90411 3.72751C6.42009 4.34876 6.67808 5.22494 6.67808 6.35604V6.45887ZM4.69863 6.32391C4.69863 5.62125 4.57991 5.10925 4.34247 4.78792C4.10502 4.4623 3.75114 4.29949 3.28082 4.29949C2.65069 4.29949 2.2169 4.54156 1.97945 5.02571V7.76992C2.22146 8.25836 2.65982 8.50257 3.29452 8.50257C3.93379 8.50257 4.35388 8.20694 4.55479 7.61568C4.65068 7.3329 4.69863 6.90231 4.69863 6.32391Z" fill="#FFFFFE"/>
<path d="M12.0685 4.65938C11.7991 4.62511 11.5616 4.60797 11.3562 4.60797C10.6073 4.60797 10.1164 4.84576 9.88356 5.32134V9.87147H7.90411V2.91774H9.77397L9.82877 3.74679C10.226 3.1084 10.7763 2.7892 11.4795 2.7892C11.6986 2.7892 11.9041 2.81705 12.0959 2.87275L12.0685 4.65938Z" fill="#FFFFFE"/>
<path d="M15.1164 9.87147H13.1301V2.91774H15.1164V9.87147ZM13.0137 1.11825C13.0137 0.83976 13.1119 0.61054 13.3082 0.430591C13.5091 0.250643 13.7808 0.160668 14.1233 0.160668C14.4612 0.160668 14.7306 0.250643 14.9315 0.430591C15.1324 0.61054 15.2329 0.83976 15.2329 1.11825C15.2329 1.40103 15.1301 1.63239 14.9247 1.81234C14.7237 1.99229 14.4566 2.08226 14.1233 2.08226C13.79 2.08226 13.5205 1.99229 13.3151 1.81234C13.1142 1.63239 13.0137 1.40103 13.0137 1.11825Z" fill="#FFFFFE"/>
<path d="M19.1233 1.20823V2.91774H20.3904V4.28021H19.1233V7.75064C19.1233 8.00771 19.1758 8.19195 19.2808 8.30334C19.3858 8.41474 19.5868 8.47044 19.8836 8.47044C20.1027 8.47044 20.2968 8.45544 20.4658 8.42545V9.8329C20.0776 9.9443 19.6781 10 19.2671 10C17.879 10 17.1712 9.34233 17.1438 8.02699V4.28021H16.0616V2.91774H17.1438V1.20823H19.1233Z" fill="#FFFFFE"/>
<path d="M20.9795 6.33033C20.9795 5.64053 21.121 5.02571 21.4041 4.48586C21.6872 3.94602 22.0936 3.52828 22.6233 3.23265C23.1575 2.93702 23.7763 2.7892 24.4795 2.7892C25.4795 2.7892 26.2945 3.07626 26.9247 3.65039C27.5594 4.22451 27.9132 5.00428 27.9863 5.98972L28 6.4653C28 7.53213 27.6826 8.38903 27.0479 9.03599C26.4132 9.67866 25.5616 10 24.4932 10C23.4247 10 22.5708 9.67866 21.9315 9.03599C21.2968 8.39332 20.9795 7.51928 20.9795 6.41388V6.33033ZM22.9589 6.4653C22.9589 7.12511 23.0913 7.63068 23.3562 7.98201C23.621 8.32905 24 8.50257 24.4932 8.50257C24.9726 8.50257 25.347 8.33119 25.6164 7.98843C25.8858 7.64139 26.0205 7.08869 26.0205 6.33033C26.0205 5.68338 25.8858 5.18209 25.6164 4.82648C25.347 4.47087 24.968 4.29306 24.4795 4.29306C23.9954 4.29306 23.621 4.47087 23.3562 4.82648C23.0913 5.17781 22.9589 5.72408 22.9589 6.4653Z" fill="#FFFFFE"/>
<path d="M29 9.20408C29 8.89116 29.1045 8.63719 29.3135 8.44218C29.527 8.24717 29.7928 8.14966 30.1108 8.14966C30.4334 8.14966 30.6992 8.24717 30.9081 8.44218C31.1217 8.63719 31.2284 8.89116 31.2284 9.20408C31.2284 9.51247 31.124 9.76417 30.915 9.95918C30.706 10.1497 30.4379 10.2449 30.1108 10.2449C29.7882 10.2449 29.5225 10.1497 29.3135 9.95918C29.1045 9.76417 29 9.51247 29 9.20408Z" fill="#EEBBC3"/>
<path d="M35.3173 1V2.80952H36.5781V4.2517H35.3173V7.92517C35.3173 8.19728 35.3696 8.39229 35.4741 8.5102C35.5786 8.62812 35.7785 8.68708 36.0738 8.68708C36.2919 8.68708 36.4849 8.6712 36.653 8.63946V10.1293C36.2669 10.2472 35.8693 10.3061 35.4604 10.3061C34.0793 10.3061 33.3751 9.60998 33.3479 8.21769V4.2517H32.2711V2.80952H33.3479V1H35.3173Z" fill="#EEBBC3"/>
<path d="M37.1641 6.42177C37.1641 5.69161 37.305 5.04082 37.5867 4.46939C37.8683 3.89796 38.2727 3.45578 38.7997 3.14286C39.3313 2.82993 39.9469 2.67347 40.6465 2.67347C41.6415 2.67347 42.4524 2.97732 43.0794 3.58503C43.7109 4.19274 44.063 5.01814 44.1357 6.06122L44.1493 6.56463C44.1493 7.69388 43.8336 8.60091 43.2021 9.28571C42.5706 9.96599 41.7233 10.3061 40.6601 10.3061C39.597 10.3061 38.7475 9.96599 38.1114 9.28571C37.4799 8.60544 37.1641 7.68027 37.1641 6.5102V6.42177ZM39.1336 6.56463C39.1336 7.26304 39.2654 7.79819 39.5289 8.17007C39.7924 8.53742 40.1695 8.72109 40.6601 8.72109C41.1372 8.72109 41.5097 8.53968 41.7778 8.17687C42.0458 7.80952 42.1799 7.22449 42.1799 6.42177C42.1799 5.73696 42.0458 5.20635 41.7778 4.82993C41.5097 4.45351 41.1326 4.26531 40.6465 4.26531C40.1649 4.26531 39.7924 4.45351 39.5289 4.82993C39.2654 5.20181 39.1336 5.78005 39.1336 6.56463Z" fill="#EEBBC3"/>
<path d="M52 6.55782C52 7.69161 51.741 8.60091 51.2231 9.28571C50.7097 9.96599 50.0146 10.3061 49.1378 10.3061C48.3927 10.3061 47.7907 10.0476 47.3319 9.53061V13H45.3624V2.80952H47.1887L47.2569 3.53061C47.7339 2.95918 48.3563 2.67347 49.1241 2.67347C50.0328 2.67347 50.7393 3.00907 51.2436 3.68027C51.7479 4.35147 52 5.27664 52 6.45578V6.55782ZM50.0305 6.41497C50.0305 5.73016 49.9079 5.20181 49.6625 4.82993C49.4217 4.45805 49.0696 4.27211 48.6062 4.27211C47.9883 4.27211 47.5636 4.50794 47.3319 4.97959V7.9932C47.5726 8.47846 48.002 8.72109 48.6199 8.72109C49.5603 8.72109 50.0305 7.95238 50.0305 6.41497Z" fill="#EEBBC3"/>
</svg>
