<svg width="654" height="440" viewBox="0 0 654 440" fill="none" xmlns="http://www.w3.org/2000/svg">
<g clip-path="url(#clip0)">
<path opacity="0.1" d="M440.595 440C485.362 440 521.653 437.444 521.653 434.29C521.653 431.136 485.362 428.58 440.595 428.58C395.828 428.58 359.537 431.136 359.537 434.29C359.537 437.444 395.828 440 440.595 440Z" fill="#EBCA67"/>
<path opacity="0.1" d="M654 259.29C653.987 281.432 649.171 303.308 639.885 323.407C630.6 343.507 617.065 361.352 600.216 375.711C583.366 390.07 563.603 400.601 542.289 406.578C520.975 412.555 498.619 413.836 476.763 410.331H234.326C224.962 411.616 215.521 412.261 206.07 412.261C199.284 412.261 192.581 411.937 185.959 411.29C135.011 406.342 87.7334 382.584 53.3509 344.651C18.9684 306.719 -0.0523536 257.333 -0.000136915 206.13C-0.000136915 92.2848 92.2631 0 206.07 0C297.728 0 375.395 59.8635 402.161 142.635C429.771 119.139 464.853 106.263 501.103 106.32C585.535 106.32 654 174.805 654 259.29Z" fill="#EBCA67"/>
<path opacity="0.1" d="M595.256 379.811C578.662 392.771 559.576 402.17 539.189 407.421C518.801 412.673 497.55 413.663 476.763 410.331H234.326C224.962 411.616 215.521 412.261 206.07 412.261C199.284 412.261 192.581 411.937 185.959 411.29C145.809 407.351 107.696 391.715 76.3431 366.32C44.99 340.924 21.7744 306.886 9.57275 268.421C29.3121 226.23 80.0246 196.206 139.482 196.206C197.422 196.206 247.084 224.722 267.811 265.223C278.017 263.367 288.37 262.436 298.744 262.442C358.795 262.442 409.924 293.088 429.23 335.913C445.222 331.064 461.845 328.618 478.555 328.655C527.533 328.678 570.579 349.046 595.256 379.811Z" fill="#EBCA67"/>
<path d="M200.761 384.413C200.761 399.042 195.15 406.985 185.959 411.29C151.341 407.946 118.143 395.846 89.489 376.128C90.2237 371.155 91.6313 366.304 93.6732 361.71L119.812 369.841L96.5331 356.137C99.6813 350.762 103.704 345.949 108.435 341.897L152.349 355.555L117.945 335.342C125.029 331.458 132.87 329.156 140.929 328.592C148.988 328.029 157.073 329.218 164.628 332.078C172.183 334.938 179.03 339.401 184.697 345.16C190.364 350.919 194.717 357.837 197.456 365.439L197.576 365.782C197.667 366.039 197.758 366.295 197.844 366.558C198.152 367.468 198.436 368.387 198.695 369.316C198.792 369.647 198.883 369.978 198.963 370.315C199.043 370.652 199.128 370.955 199.203 371.275C199.277 371.594 199.34 371.846 199.397 372.108C199.437 372.28 199.477 372.451 199.511 372.622C199.574 372.896 199.631 373.193 199.682 373.45C199.762 373.85 199.842 374.255 199.91 374.655C199.979 375.055 200.053 375.489 200.116 375.905C200.179 376.322 200.253 376.83 200.31 377.299C200.367 377.767 200.413 378.132 200.453 378.549C200.453 378.68 200.481 378.806 200.493 378.937C200.533 379.303 200.561 379.668 200.59 380.034C200.593 380.081 200.593 380.129 200.59 380.176C200.624 380.633 200.652 381.09 200.675 381.547C200.698 382.004 200.715 382.449 200.727 382.883C200.73 382.927 200.73 382.971 200.727 383.014C200.755 383.471 200.761 383.939 200.761 384.413Z" fill="#EBCA67"/>
<path opacity="0.1" d="M200.761 384.413C200.761 399.042 195.15 406.985 185.959 411.29C163.572 409.134 141.694 403.3 121.204 394.023L122.141 393.401C126.37 390.597 130.743 387.731 135.721 386.777C140.099 385.938 144.614 386.646 149.061 386.395C156.802 385.921 164.089 382.58 169.502 377.025C172.682 373.736 175.211 369.699 179.007 367.186C183.128 364.48 188.357 363.897 193.243 364.571C194.663 364.778 196.069 365.066 197.456 365.433L197.576 365.776C197.667 366.033 197.758 366.29 197.844 366.552C198.152 367.462 198.436 368.382 198.695 369.31C198.792 369.642 198.883 369.973 198.963 370.31C199.043 370.647 199.128 370.949 199.203 371.269C199.277 371.589 199.34 371.84 199.397 372.103C199.437 372.274 199.477 372.445 199.511 372.616C199.574 372.891 199.631 373.187 199.682 373.444C199.762 373.844 199.842 374.25 199.91 374.649C199.979 375.049 200.053 375.483 200.116 375.9C200.179 376.317 200.253 376.825 200.31 377.293C200.367 377.761 200.413 378.127 200.453 378.543C200.453 378.675 200.481 378.8 200.493 378.932C200.533 379.297 200.561 379.663 200.59 380.028C200.593 380.076 200.593 380.123 200.59 380.171C200.624 380.628 200.653 381.084 200.675 381.541C200.698 381.998 200.715 382.443 200.727 382.877C200.73 382.921 200.73 382.965 200.727 383.009C200.755 383.471 200.761 383.939 200.761 384.413Z" fill="black"/>
<path d="M534.012 393.909C534.016 395.398 533.863 396.883 533.555 398.34C533.498 398.614 533.435 398.882 533.372 399.145C531.751 405.649 527.179 410.405 521.722 410.708C521.539 410.708 521.356 410.708 521.151 410.708C515.38 410.708 510.499 405.729 508.889 398.871C508.844 398.688 508.804 398.506 508.764 398.3C508.456 396.843 508.303 395.358 508.307 393.869C508.307 384.579 514.055 377.053 521.151 377.053C528.246 377.053 534.012 384.619 534.012 393.909Z" fill="#3F3D56"/>
<path opacity="0.1" d="M534.012 393.909C534.016 395.398 533.863 396.883 533.555 398.34C533.498 398.614 533.435 398.882 533.372 399.145C533.178 399.145 532.99 399.145 532.801 399.145C531.388 399.069 529.983 398.878 528.6 398.574C527.375 398.953 526.123 399.239 524.855 399.431C523.883 399.577 522.904 399.668 521.921 399.705C521.59 399.705 521.259 399.705 520.928 399.705C519.752 399.705 518.577 399.627 517.412 399.47C515.527 399.219 513.676 398.759 511.892 398.1C510.915 398.425 509.92 398.692 508.912 398.899C508.867 398.717 508.827 398.534 508.787 398.328C508.479 396.872 508.326 395.386 508.33 393.898C508.33 384.607 514.078 377.082 521.174 377.082C528.269 377.082 534.012 384.619 534.012 393.909Z" fill="black"/>
<path d="M561.411 362.584C561.417 358.496 560.458 354.464 558.614 350.816L543.51 355.515L556.77 347.721C554.547 344.506 551.63 341.832 548.236 339.896C544.841 337.96 541.055 336.811 537.157 336.535C536.536 335.594 535.856 334.693 535.119 333.84L513.427 340.595L531.22 330.128C527.817 327.516 523.821 325.782 519.589 325.081C515.356 324.381 511.015 324.735 506.952 326.112C502.888 327.488 499.226 329.846 496.291 332.976C493.355 336.106 491.236 339.911 490.12 344.055L508.701 365.45L488.545 350.867C483.439 354.49 479.804 359.826 478.303 365.905C476.801 371.984 477.533 378.4 480.364 383.984C483.195 389.568 487.938 393.949 493.729 396.329C499.519 398.708 505.971 398.927 511.909 396.947C517.28 398.922 523.15 399.084 528.623 397.409C532.438 398.245 536.391 398.214 540.193 397.32C543.995 396.426 547.548 394.691 550.591 392.242C553.634 389.794 556.089 386.694 557.777 383.171C559.465 379.648 560.342 375.792 560.344 371.886C560.344 371.315 560.344 370.744 560.287 370.173C561.034 367.712 561.413 365.155 561.411 362.584Z" fill="#EBCA67"/>
<path opacity="0.1" d="M560.96 367.426C552.984 365.914 544.804 365.809 536.791 367.118C527.721 368.62 518.451 371.92 509.58 369.51C504.374 368.094 499.876 364.817 494.79 362.995C489.883 361.283 484.596 360.966 479.52 362.082C477.586 366.711 477.025 371.799 477.904 376.738C478.783 381.678 481.065 386.26 484.478 389.937C487.89 393.613 492.289 396.23 497.148 397.473C502.008 398.716 507.122 398.533 511.88 396.947C517.252 398.922 523.122 399.084 528.594 397.409C532.411 398.25 536.368 398.223 540.173 397.331C543.979 396.439 547.535 394.705 550.582 392.256C553.628 389.807 556.087 386.705 557.776 383.18C559.466 379.655 560.343 375.795 560.344 371.886C560.344 371.315 560.344 370.744 560.287 370.173C560.561 369.27 560.786 368.353 560.96 367.426Z" fill="black"/>
<path d="M407.299 142.989H404.856C404.134 142.989 403.548 143.575 403.548 144.297V183.376C403.548 184.098 404.134 184.684 404.856 184.684H407.299C408.021 184.684 408.606 184.098 408.606 183.376V144.297C408.606 143.575 408.021 142.989 407.299 142.989Z" fill="#3A3768"/>
<path d="M237.003 110.323H236.78C236.058 110.323 235.473 110.908 235.473 111.63V122.742C235.473 123.464 236.058 124.049 236.78 124.049H237.003C237.725 124.049 238.31 123.464 238.31 122.742V111.63C238.31 110.908 237.725 110.323 237.003 110.323Z" fill="#3A3768"/>
<path d="M237.26 135.458H236.678C235.956 135.458 235.37 136.043 235.37 136.766V158.041C235.37 158.763 235.956 159.349 236.678 159.349H237.26C237.982 159.349 238.567 158.763 238.567 158.041V136.766C238.567 136.043 237.982 135.458 237.26 135.458Z" fill="#3A3768"/>
<path d="M237.157 167.708H236.729C236.007 167.708 235.422 168.293 235.422 169.016V190.497C235.422 191.219 236.007 191.804 236.729 191.804H237.157C237.879 191.804 238.464 191.219 238.464 190.497V169.016C238.464 168.293 237.879 167.708 237.157 167.708Z" fill="#3A3768"/>
<path d="M384.02 64.9625H259.34C247.047 64.9625 237.083 74.9301 237.083 87.2257V386.663C237.083 398.959 247.047 408.926 259.34 408.926H384.02C396.312 408.926 406.277 398.959 406.277 386.663V87.2257C406.277 74.9301 396.312 64.9625 384.02 64.9625Z" fill="#3F3D56"/>
<path d="M326.777 75.2348H307.569C306.349 75.2348 305.36 76.2241 305.36 77.4445V77.8214C305.36 79.0418 306.349 80.0311 307.569 80.0311H326.777C327.997 80.0311 328.987 79.0418 328.987 77.8214V77.4445C328.987 76.2241 327.997 75.2348 326.777 75.2348Z" fill="#E6E8EC"/>
<path d="M335.277 80.3566C336.781 80.3566 338 79.1372 338 77.633C338 76.1287 336.781 74.9093 335.277 74.9093C333.773 74.9093 332.554 76.1287 332.554 77.633C332.554 79.1372 333.773 80.3566 335.277 80.3566Z" fill="#E6E8EC"/>
<path d="M382.371 73.9215H363.019V76.2568C363.019 79.1917 361.854 82.0064 359.779 84.0817C357.705 86.1569 354.891 87.3228 351.957 87.3228H290.204C287.27 87.3228 284.456 86.1569 282.382 84.0817C280.307 82.0064 279.142 79.1917 279.142 76.2568V73.9215H260.966C259.202 73.9215 257.455 74.2692 255.825 74.9447C254.195 75.6203 252.714 76.6105 251.467 77.8587C250.219 79.1069 249.23 80.5887 248.556 82.2194C247.881 83.8502 247.534 85.5979 247.535 87.3628V386.526C247.534 388.291 247.881 390.039 248.556 391.669C249.23 393.3 250.219 394.782 251.467 396.03C252.714 397.278 254.195 398.269 255.825 398.944C257.455 399.62 259.202 399.967 260.966 399.967H382.371C385.934 399.967 389.352 398.551 391.872 396.03C394.392 393.51 395.808 390.091 395.808 386.526V87.3628C395.808 83.7979 394.392 80.3791 391.872 77.8583C389.352 75.3376 385.934 73.9215 382.371 73.9215Z" fill="#EBCA67"/>
<path opacity="0.1" d="M338.805 127.601H253.751V141.305H338.805V127.601Z" fill="black" stroke="#EBCA67" stroke-miterlimit="10"/>
<path opacity="0.1" d="M274.301 221.245C284.389 221.245 292.567 213.064 292.567 202.973C292.567 192.882 284.389 184.701 274.301 184.701C264.213 184.701 256.034 192.882 256.034 202.973C256.034 213.064 264.213 221.245 274.301 221.245Z" fill="black" stroke="#EBCA67" stroke-miterlimit="10"/>
<path d="M269.163 199.547V206.399H273.73L279.438 212.366V193.574L273.73 199.547H269.163Z" fill="white"/>
<path opacity="0.1" d="M322.822 221.245C332.91 221.245 341.088 213.064 341.088 202.973C341.088 192.882 332.91 184.701 322.822 184.701C312.733 184.701 304.555 192.882 304.555 202.973C304.555 213.064 312.733 221.245 322.822 221.245Z" fill="black" stroke="#EBCA67" stroke-miterlimit="10"/>
<path d="M322.822 210.601C322.39 210.599 321.967 210.725 321.607 210.963C321.247 211.202 320.966 211.542 320.799 211.94C320.632 212.338 320.587 212.777 320.67 213.201C320.753 213.625 320.96 214.015 321.264 214.321C321.569 214.627 321.957 214.836 322.38 214.921C322.804 215.006 323.243 214.964 323.642 214.799C324.041 214.634 324.382 214.355 324.622 213.996C324.862 213.637 324.991 213.214 324.991 212.783C324.991 212.206 324.763 211.653 324.356 211.244C323.95 210.836 323.398 210.604 322.822 210.601ZM316.428 190.982C315.996 190.978 315.573 191.103 315.212 191.341C314.851 191.579 314.569 191.918 314.401 192.316C314.234 192.715 314.188 193.154 314.27 193.578C314.353 194.002 314.559 194.393 314.863 194.699C315.167 195.006 315.556 195.215 315.979 195.301C316.403 195.387 316.842 195.344 317.242 195.18C317.641 195.015 317.983 194.736 318.223 194.377C318.463 194.018 318.592 193.595 318.592 193.163C318.592 192.588 318.364 192.035 317.959 191.627C317.554 191.218 317.004 190.986 316.428 190.982ZM316.428 197.526C315.996 197.522 315.573 197.647 315.212 197.885C314.851 198.123 314.568 198.463 314.401 198.861C314.233 199.26 314.188 199.699 314.271 200.124C314.353 200.548 314.56 200.938 314.865 201.245C315.17 201.551 315.559 201.76 315.983 201.845C316.407 201.93 316.846 201.887 317.246 201.722C317.645 201.556 317.986 201.276 318.226 200.916C318.465 200.556 318.593 200.133 318.592 199.701C318.592 199.126 318.364 198.574 317.959 198.167C317.553 197.759 317.003 197.529 316.428 197.526ZM316.428 204.063C315.996 204.06 315.573 204.185 315.212 204.423C314.851 204.66 314.569 205 314.401 205.398C314.234 205.796 314.188 206.235 314.27 206.66C314.353 207.084 314.559 207.474 314.863 207.781C315.167 208.088 315.556 208.297 315.979 208.383C316.403 208.468 316.842 208.426 317.242 208.261C317.641 208.097 317.983 207.817 318.223 207.458C318.463 207.099 318.592 206.677 318.592 206.245C318.592 205.669 318.364 205.117 317.959 204.708C317.554 204.3 317.004 204.068 316.428 204.063ZM329.215 195.344C329.647 195.347 330.069 195.221 330.429 194.982C330.789 194.744 331.071 194.404 331.238 194.006C331.404 193.607 331.449 193.168 331.366 192.745C331.283 192.321 331.077 191.931 330.772 191.625C330.468 191.319 330.079 191.11 329.656 191.025C329.233 190.94 328.794 190.982 328.394 191.147C327.995 191.312 327.654 191.591 327.414 191.95C327.174 192.309 327.046 192.731 327.046 193.163C327.045 193.449 327.1 193.732 327.209 193.996C327.318 194.26 327.477 194.501 327.679 194.703C327.88 194.906 328.119 195.066 328.383 195.176C328.647 195.287 328.929 195.344 329.215 195.344ZM322.822 204.063C322.39 204.061 321.967 204.187 321.607 204.425C321.247 204.664 320.966 205.004 320.799 205.402C320.632 205.8 320.587 206.239 320.67 206.663C320.753 207.087 320.96 207.477 321.264 207.783C321.569 208.089 321.957 208.298 322.38 208.383C322.804 208.468 323.243 208.426 323.642 208.261C324.041 208.096 324.382 207.817 324.622 207.458C324.862 207.099 324.991 206.677 324.991 206.245C324.991 205.668 324.763 205.115 324.356 204.706C323.95 204.298 323.398 204.066 322.822 204.063ZM329.215 204.063C328.783 204.061 328.36 204.187 328 204.425C327.64 204.664 327.359 205.004 327.192 205.402C327.025 205.8 326.98 206.239 327.063 206.663C327.146 207.087 327.353 207.477 327.657 207.783C327.962 208.089 328.35 208.298 328.774 208.383C329.197 208.468 329.636 208.426 330.035 208.261C330.434 208.096 330.776 207.817 331.016 207.458C331.256 207.099 331.384 206.677 331.384 206.245C331.384 205.668 331.156 205.115 330.749 204.706C330.343 204.298 329.791 204.066 329.215 204.063ZM329.215 197.526C328.783 197.523 328.36 197.649 328 197.888C327.639 198.126 327.358 198.467 327.192 198.865C327.025 199.264 326.98 199.703 327.064 200.127C327.147 200.551 327.354 200.941 327.659 201.247C327.965 201.553 328.354 201.761 328.777 201.846C329.201 201.93 329.64 201.887 330.039 201.721C330.438 201.556 330.779 201.275 331.018 200.916C331.258 200.556 331.385 200.133 331.384 199.701C331.384 199.125 331.156 198.573 330.749 198.165C330.342 197.757 329.791 197.527 329.215 197.526ZM322.822 197.526C322.39 197.523 321.967 197.649 321.606 197.888C321.246 198.126 320.965 198.467 320.798 198.865C320.632 199.264 320.587 199.703 320.67 200.127C320.754 200.551 320.961 200.941 321.266 201.247C321.571 201.553 321.96 201.761 322.384 201.846C322.808 201.93 323.247 201.887 323.646 201.721C324.045 201.556 324.386 201.275 324.625 200.916C324.865 200.556 324.992 200.133 324.991 199.701C324.991 199.125 324.762 198.573 324.356 198.165C323.949 197.757 323.397 197.527 322.822 197.526ZM322.822 190.982C322.39 190.98 321.967 191.106 321.607 191.344C321.247 191.582 320.966 191.922 320.799 192.32C320.632 192.719 320.587 193.158 320.67 193.582C320.753 194.005 320.96 194.395 321.264 194.701C321.569 195.008 321.957 195.216 322.38 195.301C322.804 195.387 323.243 195.344 323.642 195.179C324.041 195.015 324.382 194.735 324.622 194.376C324.862 194.017 324.991 193.595 324.991 193.163C324.991 192.587 324.763 192.033 324.356 191.625C323.95 191.216 323.398 190.985 322.822 190.982Z" fill="white"/>
<g opacity="0.4">
<path opacity="0.1" d="M274.301 276.061C284.389 276.061 292.567 267.88 292.567 257.789C292.567 247.697 284.389 239.517 274.301 239.517C264.213 239.517 256.034 247.697 256.034 257.789C256.034 267.88 264.213 276.061 274.301 276.061Z" fill="black" stroke="#EBCA67" stroke-miterlimit="10"/>
<path opacity="0.4" d="M282.863 258.931H275.443V266.354H273.159V258.931H265.739V256.647H273.159V249.224H275.443V256.647H282.863V258.931Z" fill="white"/>
</g>
<path opacity="0.1" d="M371.342 221.245C381.431 221.245 389.609 213.064 389.609 202.973C389.609 192.882 381.431 184.701 371.342 184.701C361.254 184.701 353.076 192.882 353.076 202.973C353.076 213.064 361.254 221.245 371.342 221.245Z" fill="black" stroke="#EBCA67" stroke-miterlimit="10"/>
<path d="M371.342 191.833C369.975 191.851 368.624 192.138 367.368 192.678C366.112 193.218 364.974 194 364.02 194.98C363.065 195.96 362.314 197.118 361.807 198.388C361.301 199.659 361.049 201.017 361.067 202.385V210.59C361.061 211.046 361.145 211.499 361.314 211.922C361.483 212.346 361.733 212.732 362.051 213.058C362.369 213.385 362.749 213.646 363.167 213.826C363.586 214.006 364.036 214.101 364.492 214.107H367.917V204.68H363.351V202.396C363.351 200.276 364.193 198.243 365.691 196.744C367.19 195.244 369.223 194.402 371.342 194.402C373.462 194.402 375.494 195.244 376.993 196.744C378.492 198.243 379.334 200.276 379.334 202.396V204.68H374.767V214.102H378.192C378.648 214.096 379.099 214.001 379.518 213.821C379.937 213.642 380.316 213.381 380.635 213.054C380.953 212.727 381.203 212.341 381.372 211.917C381.541 211.493 381.624 211.04 381.617 210.584V202.385C381.635 201.017 381.384 199.659 380.877 198.388C380.371 197.118 379.619 195.96 378.665 194.98C377.711 194 376.573 193.218 375.316 192.678C374.06 192.138 372.71 191.851 371.342 191.833Z" fill="white"/>
<g opacity="0.4">
<path opacity="0.1" d="M322.822 276.061C332.91 276.061 341.088 267.88 341.088 257.789C341.088 247.697 332.91 239.517 322.822 239.517C312.733 239.517 304.555 247.697 304.555 257.789C304.555 267.88 312.733 276.061 322.822 276.061Z" fill="black" stroke="#EBCA67" stroke-miterlimit="10"/>
<path opacity="0.4" d="M329.671 255.83V251.262C329.669 251.089 329.633 250.918 329.565 250.759C329.496 250.6 329.397 250.455 329.273 250.334C329.149 250.214 329.003 250.118 328.842 250.054C328.681 249.99 328.509 249.958 328.336 249.96H312.158C311.81 249.957 311.474 250.093 311.225 250.337C310.975 250.58 310.833 250.913 310.828 251.262V264.287C310.834 264.635 310.977 264.967 311.226 265.211C311.475 265.454 311.81 265.59 312.158 265.588H328.33C328.679 265.592 329.016 265.456 329.266 265.213C329.516 264.969 329.66 264.636 329.666 264.287V259.719L334.803 264.926V250.623L329.671 255.83Z" fill="white"/>
</g>
<path opacity="0.1" d="M371.342 276.061C381.431 276.061 389.609 267.88 389.609 257.789C389.609 247.697 381.431 239.517 371.342 239.517C361.254 239.517 353.076 247.697 353.076 257.789C353.076 267.88 361.254 276.061 371.342 276.061Z" fill="black" stroke="#EBCA67" stroke-miterlimit="10"/>
<path d="M370.44 262.494C369.458 263.051 368.347 263.344 367.218 263.344C366.088 263.344 364.978 263.051 363.995 262.494C361.472 263.265 359.925 265.817 359.355 268.061H375.081C374.51 265.817 372.969 263.265 370.44 262.494ZM367.221 250.503C366.099 250.502 365.002 250.833 364.069 251.456C363.136 252.079 362.409 252.964 361.979 254C361.549 255.037 361.437 256.177 361.655 257.278C361.874 258.378 362.414 259.389 363.207 260.182C364 260.975 365.01 261.515 366.111 261.734C367.211 261.953 368.351 261.84 369.387 261.41C370.423 260.98 371.308 260.253 371.93 259.319C372.553 258.386 372.884 257.289 372.883 256.167C372.883 254.665 372.287 253.224 371.225 252.162C370.163 251.1 368.723 250.503 367.221 250.503ZM367.221 260.484C366.368 260.468 365.54 260.203 364.836 259.723C364.132 259.242 363.584 258.566 363.259 257.777H371.177C370.853 258.566 370.306 259.242 369.604 259.724C368.901 260.206 368.073 260.472 367.221 260.489V260.484Z" fill="white"/>
<path d="M374.904 264.635H383.33C383.067 263.45 382.501 262.353 381.688 261.452C380.874 260.552 379.841 259.877 378.689 259.496C377.705 260.053 376.594 260.346 375.464 260.347C374.705 260.354 373.951 260.226 373.237 259.97C372.84 260.669 372.335 261.301 371.742 261.843C373.048 262.441 374.148 263.413 374.904 264.635ZM374.048 254.785H379.425C379.099 255.571 378.55 256.245 377.846 256.724C377.142 257.203 376.314 257.465 375.464 257.48C375 257.477 374.541 257.396 374.105 257.241C374.035 257.698 373.918 258.148 373.757 258.582C374.537 258.831 375.361 258.908 376.173 258.808C376.986 258.708 377.767 258.433 378.463 258.002C379.159 257.571 379.753 256.995 380.206 256.312C380.658 255.629 380.956 254.857 381.082 254.048C381.207 253.239 381.155 252.412 380.931 251.624C380.706 250.837 380.313 250.108 379.78 249.487C379.247 248.865 378.585 248.367 377.841 248.026C377.097 247.685 376.288 247.509 375.469 247.511C374.516 247.512 373.579 247.753 372.744 248.212C371.909 248.671 371.203 249.333 370.691 250.137C371.547 250.631 372.289 251.3 372.868 252.101C373.446 252.903 373.848 253.817 374.048 254.785Z" fill="white"/>
<path d="M322.822 349.148C332.91 349.148 341.088 340.968 341.088 330.876C341.088 320.785 332.91 312.604 322.822 312.604C312.733 312.604 304.555 320.785 304.555 330.876C304.555 340.968 312.733 349.148 322.822 349.148Z" fill="#FF6F61"/>
<path d="M313.443 335.387C314.442 334.443 315.58 333.658 316.816 333.058C317.008 332.973 317.17 332.833 317.283 332.656C317.395 332.48 317.454 332.274 317.45 332.064L317.547 328.513C321.038 327.475 324.768 327.575 328.199 328.798L328.102 332.35C328.099 332.556 328.15 332.759 328.25 332.94C328.35 333.12 328.496 333.271 328.673 333.377C329.913 334.023 331.036 334.872 331.995 335.89C332.098 335.999 332.221 336.087 332.358 336.148C332.495 336.21 332.643 336.244 332.793 336.248C332.943 336.252 333.093 336.227 333.233 336.173C333.373 336.119 333.501 336.039 333.61 335.935L336.51 333.183C336.729 332.975 336.857 332.689 336.865 332.388C336.874 332.086 336.762 331.793 336.556 331.573C334.803 329.722 332.703 328.234 330.375 327.195C328.047 326.156 325.538 325.585 322.99 325.517C320.441 325.448 317.905 325.881 315.524 326.793C313.144 327.705 310.966 329.077 309.116 330.831C309.007 330.934 308.92 331.058 308.859 331.195C308.798 331.332 308.765 331.48 308.761 331.63C308.757 331.781 308.783 331.93 308.837 332.07C308.891 332.21 308.972 332.338 309.076 332.447L311.822 335.347C311.925 335.456 312.049 335.544 312.186 335.604C312.323 335.665 312.471 335.699 312.621 335.702C312.771 335.706 312.92 335.68 313.06 335.626C313.201 335.572 313.328 335.491 313.437 335.387H313.443Z" fill="white"/>
<path opacity="0.1" d="M373.625 153.296C381.507 153.296 387.896 146.905 387.896 139.021C387.896 131.137 381.507 124.746 373.625 124.746C365.744 124.746 359.355 131.137 359.355 139.021C359.355 146.905 365.744 153.296 373.625 153.296Z" fill="black" stroke="#EBCA67" stroke-miterlimit="10"/>
<path d="M376.851 142.224C375.867 142.782 374.756 143.075 373.625 143.075C372.495 143.075 371.384 142.782 370.4 142.224C367.877 142.995 366.33 145.547 365.759 147.797H381.491C380.921 145.547 379.374 142.995 376.851 142.224ZM373.625 130.233C372.504 130.232 371.408 130.564 370.475 131.186C369.542 131.808 368.814 132.694 368.385 133.73C367.955 134.766 367.842 135.906 368.06 137.006C368.278 138.106 368.817 139.117 369.61 139.911C370.402 140.704 371.412 141.245 372.512 141.464C373.611 141.683 374.751 141.571 375.788 141.142C376.824 140.713 377.709 139.987 378.332 139.054C378.955 138.121 379.288 137.025 379.288 135.903C379.287 134.401 378.69 132.961 377.628 131.898C376.567 130.835 375.127 130.236 373.625 130.233ZM373.625 140.22C372.774 140.203 371.945 139.938 371.242 139.457C370.538 138.976 369.99 138.301 369.664 137.514H377.587C377.261 138.301 376.712 138.977 376.009 139.458C375.306 139.94 374.478 140.207 373.625 140.226V140.22Z" fill="white"/>
<path opacity="0.1" d="M230.946 37.9086C229.616 37.1377 227.818 37.8743 226.905 39.1134C225.992 40.3525 225.763 41.9684 225.506 43.4701C224.998 46.8447 224.627 50.7218 226.905 53.2684C223.183 41.9798 212.48 33.3292 200.647 32.0673" stroke="#EBCA67" stroke-width="3" stroke-miterlimit="10"/>
<path opacity="0.1" d="M461.579 224.197C460.723 223.7 459.57 224.197 458.982 224.973C458.461 225.82 458.151 226.78 458.08 227.771C457.754 229.947 457.509 232.436 458.982 234.052C457.728 230.428 455.482 227.229 452.5 224.82C449.518 222.41 445.919 220.886 442.114 220.423" stroke="#EBCA67" stroke-width="3" stroke-miterlimit="10"/>
<path opacity="0.1" d="M170.741 150.378C169.885 149.887 168.732 150.378 168.144 151.155C167.622 152.003 167.312 152.965 167.242 153.958C166.916 156.128 166.671 158.618 168.144 160.239C166.889 156.616 164.643 153.418 161.661 151.008C158.679 148.599 155.081 147.075 151.276 146.61" stroke="#EBCA67" stroke-width="3" stroke-miterlimit="10"/>
<path d="M397.783 417.383C398.354 418.462 399.427 419.124 400.46 419.712C407.639 423.829 415.202 427.235 423.042 429.882C423.237 429.995 423.456 430.063 423.681 430.08C423.906 430.098 424.132 430.064 424.342 429.983C424.553 429.901 424.742 429.773 424.896 429.608C425.051 429.444 425.166 429.246 425.234 429.031C426.136 427.512 427.124 425.034 426.89 423.03C427.632 422.58 428.17 421.859 428.391 421.02C428.7 420 429.17 419.036 429.784 418.165C430.851 416.555 432.141 414.939 432.312 412.98C432.298 412.282 432.365 411.585 432.512 410.902C432.815 410 433.62 409.406 434.225 408.686C435.167 407.544 435.618 406.071 436.046 404.638C437.827 398.682 439.608 392.727 441.092 386.68C441.571 384.722 442.017 382.757 442.673 380.856C443.244 379.189 443.975 377.59 444.699 375.991C447.292 370.196 450.309 364.601 453.724 359.249C454.258 361.047 454.905 362.809 455.659 364.525C456.048 365.41 456.464 366.284 456.858 367.169C458.348 370.504 458.08 374.786 459.912 377.921C460.673 379.208 461.423 380.492 462.161 381.775C462.58 382.404 462.905 383.091 463.126 383.814C463.246 384.316 463.257 384.842 463.343 385.35C463.731 387.634 465.586 389.244 466.614 391.282C467.556 393.144 467.755 395.279 468.326 397.329C469.679 402.069 473.001 406.185 473.338 411.125C473.38 412.458 473.348 413.792 473.241 415.122C473.156 417.449 473.311 419.78 473.703 422.076C473.735 422.308 473.796 422.534 473.886 422.75C470.961 427.104 466.457 430.147 461.328 431.235C460.357 431.429 459.244 431.635 458.736 432.526C458.125 433.588 458.816 435.049 459.878 435.62C460.94 436.191 462.161 436.134 463.303 436.031C471.493 435.346 479.594 433.85 487.489 431.566C487.888 431.484 488.253 431.285 488.539 430.995C488.82 430.578 488.944 430.074 488.887 429.574C488.883 427.728 488.454 425.909 487.632 424.257L488.202 424.058C488.522 421.774 487.346 419.564 486.433 417.445C484.846 413.751 483.978 409.76 482.722 405.917C480.302 398.494 476.392 391.568 475.45 383.802C475.193 381.667 474.554 379.497 474.417 377.35C474.143 372.976 473.846 368.579 472.893 364.32C472.094 360.814 470.832 357.468 470.039 353.922C469.245 350.376 468.988 346.647 470.153 343.256C470.484 342.285 470.929 341.366 471.232 340.401C472.373 336.626 471.283 332.538 470.176 328.747C469.826 327.548 469.479 326.352 469.137 325.161C468.674 323.591 468.218 322.015 467.715 320.456C467.784 320.393 467.847 320.33 467.915 320.256C468.92 319.114 468.908 317.367 469.628 316.002C469.982 315.3 470.518 314.723 470.895 314.038C471.607 312.556 471.79 310.876 471.414 309.276C471.112 307.677 470.507 306.158 470.05 304.599C468.81 300.321 468.716 295.792 469.776 291.466C470.238 289.622 470.918 287.812 471.015 285.91C471.048 284.639 470.931 283.368 470.667 282.125C469.782 277.328 468.046 272.463 464.524 269.294C462.646 267.581 460.106 266.08 459.906 263.476C459.603 263.359 459.27 263.347 458.959 263.442C458.798 262.849 458.691 262.243 458.639 261.631H458.668C458.842 261.651 459.018 261.651 459.193 261.631C459.341 261.622 459.485 261.581 459.615 261.512C459.689 261.468 459.758 261.416 459.821 261.357C460.043 261.13 460.235 260.875 460.392 260.598C460.626 260.21 460.837 259.793 461.014 259.507C461.191 259.222 461.476 258.765 461.699 258.365C462.365 257.223 462.983 256.062 463.554 254.882V254.837C463.611 254.728 463.662 254.614 463.714 254.505L463.782 254.351L463.885 254.117C463.885 254.06 463.936 253.997 463.959 253.94C463.982 253.883 464.022 253.797 464.051 253.723L464.131 253.535C464.159 253.466 464.182 253.398 464.21 253.323C464.239 253.26 464.263 253.195 464.285 253.129C464.313 253.061 464.336 252.992 464.359 252.924C464.382 252.855 464.405 252.792 464.433 252.724C464.462 252.655 464.473 252.587 464.496 252.518L464.564 252.313C464.564 252.244 464.599 252.181 464.621 252.113L464.679 251.902L464.73 251.702L464.781 251.485C464.781 251.422 464.781 251.359 464.821 251.291C464.861 251.222 464.821 251.142 464.861 251.068C464.901 250.994 464.861 250.942 464.861 250.88L464.895 250.657V250.468C464.895 250.389 464.895 250.314 464.895 250.24C464.895 250.166 464.895 250.114 464.895 250.052C464.895 249.989 464.895 249.897 464.895 249.823V249.692C464.895 249.612 464.895 249.538 464.895 249.458C464.895 249.378 464.895 249.344 464.895 249.287C464.895 249.229 464.895 249.127 464.895 249.047C464.895 248.967 464.895 248.938 464.895 248.887C464.868 248.663 464.824 248.442 464.764 248.224C464.38 246.895 463.599 245.713 462.526 244.838C461.489 243.991 460.336 243.297 459.101 242.777C458.801 242.662 458.526 242.489 458.291 242.269C458.016 241.87 457.789 241.441 457.612 240.99C457.109 240.111 456.105 239.717 455.163 239.482C454.221 239.248 453.211 239.1 452.423 238.5C452.352 238.44 452.271 238.393 452.183 238.363C452.062 238.354 451.941 238.379 451.835 238.438L449.637 239.414C449.615 239.278 449.566 239.147 449.493 239.029C449.42 238.912 449.325 238.81 449.212 238.73C449.099 238.65 448.972 238.593 448.837 238.562C448.703 238.532 448.563 238.528 448.427 238.552C447.885 238.683 447.392 238.966 447.006 239.368C446.939 239.301 446.891 239.216 446.868 239.124C446.845 239.031 446.847 238.934 446.874 238.843L445.162 239.985C444.951 240.122 444.562 240.156 444.591 239.894C443.638 240.934 442.813 242.084 442.131 243.32C441.917 243.697 441.738 244.093 441.594 244.502C441.594 244.587 441.543 244.673 441.52 244.758C441.517 244.776 441.517 244.793 441.52 244.81C441.52 244.884 441.486 244.964 441.474 245.044C441.472 245.067 441.472 245.09 441.474 245.113C441.474 245.21 441.474 245.312 441.474 245.409C441.468 245.52 441.468 245.63 441.474 245.741C441.492 246.058 441.593 246.365 441.766 246.632C441.939 246.898 442.179 247.114 442.462 247.259C442.681 247.341 442.914 247.378 443.147 247.368C443.638 247.31 444.123 247.21 444.597 247.071C444.751 247.033 444.907 247.007 445.065 246.991C445.139 246.985 445.213 246.985 445.287 246.991C445.586 246.984 445.877 247.083 446.109 247.271L446.144 247.305C444.897 248.203 443.883 249.386 443.188 250.756C442.493 252.126 442.136 253.643 442.148 255.179C442.145 256.691 442.489 258.183 443.152 259.542C442.924 259.668 442.736 259.856 442.61 260.084C442.484 260.312 442.425 260.572 442.439 260.832C442.29 260.394 442.211 259.936 442.205 259.473C441.269 259.285 440.589 260.381 440.253 261.323C439.56 263.453 439.024 265.63 438.649 267.838C438.358 269.306 438.078 270.773 437.781 272.241C437.484 273.708 437.21 275.284 436.993 276.809C436.489 280.767 436.669 284.782 437.524 288.68C437.467 288.805 437.416 288.937 437.364 289.062C437.193 289.519 436.708 289.907 436.651 290.393C436.343 293.299 438.181 295.92 439.916 298.198C440.058 298.431 440.254 298.627 440.487 298.769C440.741 298.875 441.019 298.91 441.292 298.872C441.983 298.838 442.673 298.77 443.358 298.666C443.398 299.055 443.444 299.437 443.489 299.808C443.98 303.908 444.819 308.008 444.814 312.136C444.808 316.265 444.026 320.45 445.607 324.127C445.87 324.755 446.378 325.269 446.429 325.92H446.526C445.559 327.891 444.769 329.943 444.163 332.053C443.535 334.531 443.404 337.135 442.702 339.59C442.102 341.674 441.103 343.587 440.298 345.62C438.988 348.922 438.217 352.413 438.015 355.96C437.993 357.589 437.664 359.199 437.045 360.705C436.121 362.512 435.313 364.375 434.624 366.284C433.483 369.676 431.559 372.891 431.199 376.482C431 378.515 431.291 380.685 430.44 382.523C430.109 383.243 429.618 383.865 429.23 384.545C428.663 385.633 428.221 386.783 427.911 387.971L422.26 406.716C422.046 407.747 421.57 408.704 420.879 409.497C420.354 410 419.663 410.274 419.166 410.793C418.367 411.604 418.167 412.792 418.162 414.002C417.556 414.112 416.968 414.304 416.415 414.573C414.025 415.595 411.453 416.121 408.854 416.121C406.255 416.121 403.683 415.595 401.294 414.573C400.38 414.179 399.341 413.711 398.439 414.162C397.383 414.71 397.212 416.303 397.783 417.383ZM442.804 275.387C443.143 273.835 443.779 272.363 444.677 271.053C445.955 268.946 447.302 266.862 448.524 264.709L448.872 264.372C448.969 264.646 449.061 264.943 449.146 265.2C449.358 265.932 449.528 266.676 449.654 267.427C449.835 268.367 449.888 269.328 449.814 270.282L449.734 270.345C449.273 270.642 448.9 271.058 448.655 271.55C448.495 272.039 448.495 272.567 448.655 273.057L448.604 273.114L448.661 273.074C448.861 273.862 449.232 274.673 449.112 275.473C448.981 276.438 448.204 277.14 447.719 277.968C446.577 279.961 446.943 282.987 445.065 284.209L445.031 284.289C444.628 284.194 444.252 284.007 443.932 283.744C443.612 283.48 443.357 283.147 443.187 282.77C443.335 280.332 442.422 277.831 442.804 275.387Z" fill="url(#paint0_linear)"/>
<path d="M489.635 429.682C489.696 430.177 489.567 430.677 489.276 431.081C488.972 431.371 488.592 431.569 488.18 431.652C479.938 433.909 471.502 435.385 462.983 436.06C461.762 436.151 460.471 436.22 459.393 435.655C458.314 435.089 457.595 433.645 458.251 432.6C458.782 431.721 459.963 431.515 460.951 431.326C466.297 430.284 471.034 427.215 474.171 422.762C474.546 422.123 475.034 421.559 475.61 421.094C476.706 420.346 478.162 420.523 479.457 420.78C481.741 421.248 484.772 421.802 486.832 422.921C488.893 424.041 489.601 427.495 489.635 429.682Z" fill="#3F3D56"/>
<path opacity="0.1" d="M489.635 429.682C489.696 430.177 489.567 430.677 489.276 431.081C488.972 431.371 488.592 431.569 488.18 431.652C479.938 433.909 471.502 435.385 462.983 436.06C461.762 436.151 460.471 436.22 459.393 435.655C458.314 435.089 457.595 433.645 458.251 432.6C458.782 431.721 459.963 431.515 460.951 431.326C466.297 430.284 471.034 427.215 474.171 422.762C474.546 422.123 475.034 421.559 475.61 421.094C476.706 420.346 478.162 420.523 479.457 420.78C481.741 421.248 484.772 421.802 486.832 422.921C488.893 424.041 489.601 427.495 489.635 429.682Z" fill="black"/>
<path d="M423.299 429.128C423.077 429.576 422.696 429.926 422.232 430.11C421.821 430.179 421.399 430.13 421.016 429.968C412.876 427.368 404.998 424.009 397.486 419.935C396.413 419.364 395.294 418.702 394.695 417.651C394.095 416.6 394.278 414.985 395.38 414.454C396.304 414.008 397.389 414.454 398.337 414.859C403.391 416.898 409.038 416.898 414.092 414.859C414.754 414.526 415.472 414.317 416.209 414.242C417.528 414.214 418.664 415.144 419.634 416.075C421.301 417.714 423.533 419.832 424.652 421.888C425.771 423.944 424.458 427.272 423.299 429.128Z" fill="#3F3D56"/>
<path opacity="0.1" d="M423.299 429.128C423.077 429.576 422.696 429.926 422.232 430.11C421.821 430.179 421.399 430.13 421.016 429.968C412.876 427.368 404.998 424.009 397.486 419.935C396.413 419.364 395.294 418.702 394.695 417.651C394.095 416.6 394.278 414.985 395.38 414.454C396.304 414.008 397.389 414.454 398.337 414.859C403.391 416.898 409.038 416.898 414.092 414.859C414.754 414.526 415.472 414.317 416.209 414.242C417.528 414.214 418.664 415.144 419.634 416.075C421.301 417.714 423.533 419.832 424.652 421.888C425.771 423.944 424.458 427.272 423.299 429.128Z" fill="black"/>
<path d="M466.808 319.782C467.658 322.066 468.372 324.35 469.091 326.634L470.176 330.174C471.317 333.914 472.459 337.945 471.277 341.674C470.963 342.639 470.501 343.547 470.136 344.529C468.925 347.875 469.205 351.592 470.016 355.058C470.826 358.524 472.139 361.853 472.973 365.336C473.983 369.539 474.274 373.901 474.559 378.189C474.702 380.308 475.364 382.449 475.638 384.556C476.62 392.213 480.69 399.077 483.213 406.374C484.52 410.16 485.422 414.094 487.083 417.742C488.031 419.832 489.258 421.996 488.927 424.263C484.286 425.908 479.143 425.879 474.771 423.624C474.495 423.525 474.256 423.345 474.085 423.107C473.914 422.87 473.819 422.586 473.812 422.293C473.41 420.033 473.257 417.735 473.355 415.441C473.464 414.135 473.497 412.823 473.452 411.513C473.104 406.642 469.639 402.582 468.235 397.9C467.664 395.907 467.401 393.778 466.419 391.939C465.346 389.929 463.417 388.325 462.994 386.086C462.903 385.584 462.892 385.07 462.772 384.573C462.537 383.855 462.197 383.175 461.762 382.558L459.433 378.738C457.52 375.643 457.8 371.417 456.253 368.128C455.842 367.255 455.402 366.415 454.997 365.525C454.215 363.834 453.542 362.094 452.982 360.317C449.428 365.568 446.279 371.083 443.563 376.813C442.778 378.377 442.073 379.98 441.451 381.615C440.766 383.488 440.31 385.43 439.802 387.36C438.26 393.327 436.377 399.202 434.544 405.061C434.099 406.477 433.625 407.916 432.649 409.058C432.021 409.766 431.188 410.348 430.868 411.245C430.716 411.915 430.647 412.601 430.663 413.289C430.48 415.224 429.139 416.817 428.025 418.428C427.387 419.292 426.896 420.257 426.576 421.283C426.444 421.742 426.216 422.168 425.906 422.532C425.596 422.896 425.212 423.19 424.779 423.392C424.346 423.595 423.875 423.703 423.397 423.709C422.92 423.714 422.446 423.617 422.009 423.424H421.963C421.511 423.198 421.075 422.939 420.662 422.647C419.581 421.969 418.556 421.205 417.596 420.363C416.747 419.543 415.982 418.641 415.313 417.668C415.198 417.503 415.123 417.312 415.094 417.113C415.065 416.913 415.083 416.71 415.146 416.518C415.209 416.326 415.316 416.152 415.458 416.009C415.6 415.866 415.773 415.757 415.964 415.693C415.844 414.105 415.81 412.295 416.951 411.199C417.482 410.685 418.202 410.411 418.75 409.92C419.463 409.149 419.959 408.204 420.188 407.179C422.136 401.043 424.081 394.906 426.022 388.77C426.346 387.589 426.808 386.451 427.398 385.378C427.803 384.704 428.311 384.094 428.659 383.385C429.544 381.57 429.23 379.434 429.447 377.424C429.818 373.878 431.804 370.715 433.009 367.369C433.729 365.479 434.572 363.639 435.532 361.859C436.177 360.383 436.52 358.793 436.542 357.182C436.754 353.672 437.557 350.222 438.917 346.979C439.75 344.992 440.795 343.09 441.417 341.029C442.154 338.608 442.285 336.038 442.947 333.606C443.583 331.509 444.41 329.475 445.419 327.53C446.246 325.817 447.097 324.064 448.461 322.734C450.699 320.553 453.993 319.839 457.115 319.742C460.237 319.645 463.697 320.107 466.808 319.782Z" fill="#3F3D56"/>
<path d="M447.645 275.313C451.664 272.937 455.638 270.486 459.57 267.958C458.629 266.689 458.108 265.158 458.08 263.579C458.08 263.516 458.08 263.453 458.08 263.39C458.023 261.854 458.605 260.535 456.67 260.735C454.811 260.975 452.973 261.357 451.173 261.877C450.659 262.008 446.206 263.647 446.035 263.482C447.028 264.659 447.761 266.033 448.187 267.513C448.406 268.235 448.584 268.969 448.718 269.711C449.106 271.675 449.123 273.982 447.645 275.313Z" fill="#A0616A"/>
<path d="M442.251 301.653C442.764 305.695 443.638 309.744 443.632 313.809C443.626 317.875 442.81 322.015 444.46 325.658C444.734 326.274 445.259 326.754 445.316 327.428C447.599 327.822 449.825 326.754 452 325.983C453.995 325.284 456.064 324.82 458.165 324.601C459.878 324.43 461.636 324.418 463.337 324.093C465.032 323.828 466.598 323.027 467.807 321.809C468.851 320.667 468.84 318.954 469.57 317.612C469.942 316.921 470.501 316.356 470.895 315.676C471.631 314.225 471.821 312.557 471.431 310.977C471.036 309.416 470.561 307.876 470.01 306.363C468.715 302.157 468.616 297.673 469.725 293.413C470.204 291.592 470.9 289.805 471.015 287.926C471.049 286.671 470.928 285.417 470.655 284.192C469.73 279.464 467.921 274.662 464.256 271.538C462.298 269.865 459.649 268.364 459.444 265.828C458.599 265.497 457.692 266.062 456.967 266.599L448.827 272.6C448.343 272.885 447.948 273.298 447.685 273.794C447.177 275.01 448.347 276.346 448.159 277.659C448.022 278.613 447.211 279.304 446.709 280.126C445.51 282.085 445.898 285.071 443.94 286.276C443.763 286.641 443.598 287.018 443.449 287.418C442.75 289.413 442.281 291.482 442.051 293.585C441.778 296.272 441.845 298.982 442.251 301.653Z" fill="#3F3D56"/>
<path opacity="0.1" d="M446.058 263.493C447.051 264.671 447.784 266.044 448.21 267.524C448.858 267.669 449.521 267.742 450.185 267.741C453.507 267.741 455.734 263.933 457.383 261.317C457.332 259.781 458.605 260.547 456.67 260.746C454.811 260.986 452.973 261.368 451.173 261.888C450.659 262.02 446.206 263.659 446.058 263.493Z" fill="black"/>
<path d="M450.185 266.959C455.343 266.959 459.524 262.777 459.524 257.617C459.524 252.458 455.343 248.276 450.185 248.276C445.027 248.276 440.846 252.458 440.846 257.617C440.846 262.777 445.027 266.959 450.185 266.959Z" fill="#A0616A"/>
<path d="M443.041 264.232L445.2 266.598C445.908 267.373 447.11 267.428 447.885 266.72L455.137 260.099C455.912 259.391 455.967 258.188 455.259 257.413L453.1 255.047C452.393 254.271 451.19 254.217 450.415 254.924L443.163 261.546C442.388 262.254 442.333 263.456 443.041 264.232Z" fill="#3F3D56"/>
<path opacity="0.1" d="M443.041 264.232L445.2 266.598C445.908 267.373 447.11 267.428 447.885 266.72L455.137 260.099C455.912 259.391 455.967 258.188 455.259 257.413L453.1 255.047C452.393 254.271 451.19 254.217 450.415 254.924L443.163 261.546C442.388 262.254 442.333 263.456 443.041 264.232Z" fill="black"/>
<path d="M450.767 260.147C451.196 260.147 451.544 259.799 451.544 259.37C451.544 258.941 451.196 258.594 450.767 258.594C450.339 258.594 449.991 258.941 449.991 259.37C449.991 259.799 450.339 260.147 450.767 260.147Z" fill="white"/>
<path opacity="0.1" d="M442.251 301.653C449.454 300.591 455.996 296.263 461.002 290.895C461.938 290.012 462.662 288.929 463.12 287.726C463.372 286.721 463.458 285.681 463.377 284.648L463.257 280.526C463.206 278.721 463.132 276.849 462.258 275.273C461.385 273.697 459.438 272.56 457.76 273.217C453.348 274.93 450.476 278.847 447.953 282.856C447.232 284.105 446.445 285.315 445.596 286.481C445.168 287.024 444.585 287.578 443.883 287.503C443.735 287.49 443.59 287.452 443.455 287.389C442.756 289.385 442.286 291.454 442.056 293.556C441.779 296.252 441.844 298.973 442.251 301.653Z" fill="black"/>
<path d="M441.606 277.579C441.963 276.036 442.627 274.579 443.558 273.297C446.349 268.929 449.489 264.663 450.979 259.69C448.804 260.084 448.461 263.83 446.258 263.995L446.429 261.295C446.429 260.838 446.429 260.284 446.058 260.044C445.687 259.804 445.025 260.118 444.779 260.569C444.534 261.021 444.483 261.569 444.254 262.031C444.026 262.494 443.489 262.905 443.015 262.699L442.821 261.803C442.618 261.76 442.407 261.764 442.205 261.815C442.003 261.866 441.816 261.963 441.657 262.097C441.498 262.231 441.372 262.4 441.287 262.59C441.203 262.781 441.164 262.988 441.172 263.196C441.016 262.765 440.933 262.312 440.926 261.854C439.95 261.671 439.242 262.751 438.894 263.681C438.171 265.777 437.61 267.924 437.216 270.105L436.32 274.45C436.006 275.952 435.697 277.454 435.492 278.967C434.954 282.983 435.167 287.065 436.12 291.004C437.316 290.34 438.477 289.614 439.596 288.828C440.458 288.097 441.423 287.269 441.748 286.156C442.553 283.347 441.132 280.406 441.606 277.579Z" fill="#A0616A"/>
<path d="M457.76 272.052C459.438 271.396 461.385 272.532 462.258 274.108C463.132 275.684 463.206 277.534 463.257 279.361L463.371 283.495C463.457 284.528 463.372 285.568 463.12 286.573C462.661 287.773 461.939 288.856 461.008 289.742C455.471 295.674 448.067 300.328 439.962 300.722C439.678 300.76 439.389 300.725 439.122 300.619C438.892 300.474 438.697 300.279 438.552 300.048C436.742 297.799 434.83 295.212 435.127 292.346C435.178 291.866 435.697 291.478 435.869 291.032C436.956 288.437 438.951 286.326 441.48 285.094L441.971 284.865C442.16 285.243 442.431 285.575 442.763 285.835C443.096 286.096 443.482 286.28 443.895 286.373C444.58 286.441 445.168 285.893 445.607 285.351C446.456 284.182 447.243 282.97 447.965 281.719C450.476 277.671 453.353 273.771 457.76 272.052Z" fill="#3F3D56"/>
<path d="M457.184 263.727C456.39 263.316 456.265 262.26 456.185 261.369C456.095 260.332 455.937 259.302 455.711 258.285C455.465 257.143 455.06 255.967 454.09 255.362C453.749 255.151 453.36 255.03 452.96 255.01C452.56 254.991 452.161 255.073 451.802 255.249C451.442 255.425 451.132 255.69 450.903 256.018C450.673 256.347 450.53 256.728 450.488 257.126C450.499 257.317 450.442 257.505 450.328 257.657C450.251 257.729 450.157 257.779 450.054 257.8C449.606 257.903 449.136 257.834 448.736 257.608C448.335 257.382 448.034 257.015 447.89 256.578C447.725 256.007 447.85 255.271 447.445 254.802C447.04 254.334 446.56 254.346 446.167 254.037C445.928 253.801 445.746 253.514 445.634 253.198C445.523 252.881 445.484 252.544 445.521 252.21C445.521 251.359 445.636 250.343 444.951 249.818C443.917 249.012 442.365 250.291 441.149 249.818C440.812 249.654 440.533 249.392 440.346 249.068C440.16 248.743 440.076 248.369 440.104 247.996C440.174 247.249 440.429 246.53 440.846 245.906C441.561 244.682 442.422 243.549 443.409 242.532C443.409 242.783 443.803 242.754 444.02 242.617L445.824 241.521C445.794 241.612 445.791 241.71 445.817 241.802C445.842 241.895 445.894 241.978 445.967 242.041C446.377 241.643 446.888 241.366 447.445 241.241C447.725 241.189 448.014 241.249 448.25 241.408C448.486 241.567 448.65 241.813 448.707 242.092L450.99 241.104C451.083 241.04 451.195 241.012 451.307 241.023C451.419 241.035 451.523 241.086 451.601 241.167C452.423 241.738 453.473 241.903 454.455 242.132C455.437 242.36 456.481 242.754 457.007 243.622C457.194 244.067 457.434 244.489 457.72 244.878C457.973 245.101 458.265 245.273 458.582 245.387C459.869 245.893 461.079 246.575 462.178 247.414C463.281 248.263 464.097 249.431 464.513 250.76C465.13 252.981 464.239 255.328 463.206 257.378C462.418 258.944 461.533 260.46 460.557 261.917C460.192 262.488 459.69 263.567 459.102 263.898C458.463 264.076 457.781 264.015 457.184 263.727Z" fill="#3F3D56"/>
<path opacity="0.1" d="M441.166 247.488C442.382 247.956 443.935 246.677 444.968 247.488C445.636 248.013 445.539 249.03 445.539 249.88C445.501 250.214 445.54 250.552 445.651 250.868C445.763 251.184 445.945 251.471 446.184 251.708C446.577 252.016 447.137 252.09 447.462 252.473C447.788 252.855 447.742 253.655 447.908 254.248C448.051 254.685 448.352 255.053 448.753 255.279C449.153 255.505 449.623 255.573 450.071 255.47C450.174 255.449 450.269 255.4 450.345 255.328C450.459 255.175 450.516 254.987 450.505 254.797C450.547 254.398 450.69 254.017 450.92 253.689C451.15 253.36 451.459 253.096 451.819 252.919C452.178 252.743 452.577 252.661 452.977 252.681C453.377 252.7 453.766 252.821 454.107 253.032C455.077 253.637 455.482 254.837 455.728 255.956C455.954 256.972 456.113 258.002 456.202 259.039C456.282 259.93 456.407 260.986 457.201 261.397C457.808 261.694 458.503 261.755 459.153 261.569C459.724 261.237 460.243 260.141 460.609 259.587C461.585 258.121 462.47 256.596 463.257 255.019C463.913 253.801 464.386 252.493 464.661 251.137C465.072 253.238 464.228 255.419 463.257 257.355C462.469 258.921 461.584 260.437 460.609 261.894C460.243 262.465 459.741 263.544 459.153 263.876C458.503 264.062 457.808 264.001 457.201 263.704C456.407 263.293 456.282 262.237 456.202 261.346C456.113 260.309 455.954 259.279 455.728 258.263C455.482 257.121 455.077 255.944 454.107 255.339C453.766 255.128 453.377 255.007 452.977 254.987C452.577 254.968 452.178 255.05 451.819 255.226C451.459 255.402 451.15 255.667 450.92 255.995C450.69 256.324 450.547 256.705 450.505 257.103C450.516 257.294 450.459 257.482 450.345 257.634C450.269 257.706 450.174 257.756 450.071 257.777C449.623 257.88 449.153 257.812 448.753 257.586C448.352 257.359 448.051 256.992 447.908 256.555C447.742 255.984 447.868 255.248 447.462 254.779C447.057 254.311 446.577 254.323 446.184 254.014C445.945 253.778 445.763 253.491 445.651 253.175C445.54 252.858 445.501 252.521 445.539 252.187C445.539 251.336 445.653 250.32 444.968 249.795C443.935 248.99 442.382 250.269 441.166 249.795C440.829 249.631 440.55 249.37 440.363 249.045C440.177 248.72 440.093 248.347 440.121 247.973C440.142 247.561 440.238 247.156 440.407 246.78C440.571 247.096 440.839 247.346 441.166 247.488Z" fill="black"/>
</g>
<defs>
<linearGradient id="paint0_linear" x1="443.181" y1="436.1" x2="443.181" y2="238.352" gradientUnits="userSpaceOnUse">
<stop stop-color="#808080" stop-opacity="0.25"/>
<stop offset="0.54" stop-color="#808080" stop-opacity="0.12"/>
<stop offset="1" stop-color="#808080" stop-opacity="0.1"/>
</linearGradient>
<clipPath id="clip0">
<rect width="654" height="440" fill="white"/>
</clipPath>
</defs>
</svg>
