<svg width="289" height="75" viewBox="0 0 289 75" fill="none" xmlns="http://www.w3.org/2000/svg">
<path d="M16.4088 17.0765V35.4437H48.3802V48.3504H16.4088V73.6673H0.423096V4.16986H52.6233V17.0765H16.4088Z" fill="#FFFFFE"/>
<path d="M82.3275 19.4593C90.5506 19.4593 96.8659 21.4449 101.274 25.4162C105.681 29.3213 107.885 35.2451 107.885 43.1877V73.6673H93.478V67.0154C90.5835 71.9795 85.1891 74.4615 77.295 74.4615C73.2163 74.4615 69.6639 73.7666 66.6378 72.3766C63.6775 70.9867 61.4079 69.0672 59.8291 66.6183C58.2503 64.1693 57.4608 61.3894 57.4608 58.2786C57.4608 53.3145 59.3028 49.4094 62.9868 46.5633C66.7365 43.7172 72.4927 42.2942 80.2553 42.2942H92.4912C92.4912 38.9186 91.4716 36.3372 89.4323 34.5502C87.3929 32.6969 84.3339 31.7703 80.2553 31.7703C77.4265 31.7703 74.6307 32.2336 71.8677 33.1602C69.1705 34.0207 66.8681 35.212 64.9603 36.7344L59.4344 25.9126C62.3289 23.8608 65.7826 22.2723 69.7955 21.1471C73.8741 20.0219 78.0515 19.4593 82.3275 19.4593ZM81.1434 64.0369C83.7748 64.0369 86.1101 63.4412 88.1495 62.2498C90.1888 60.9923 91.636 59.1721 92.4912 56.7893V51.3288H81.9328C75.6174 51.3288 72.4598 53.4137 72.4598 57.5836C72.4598 59.5692 73.2163 61.1577 74.7293 62.3491C76.3082 63.4743 78.4462 64.0369 81.1434 64.0369Z" fill="#FFFFFE"/>
<path d="M121.817 0H137.211V73.6673H121.817V0Z" fill="#FFFFFE"/>
<path d="M203.5 47.159C203.5 47.3575 203.401 48.7475 203.204 51.3288H163.042C163.766 54.6382 165.476 57.2527 168.174 59.1721C170.871 61.0916 174.226 62.0513 178.239 62.0513C181.002 62.0513 183.436 61.6542 185.541 60.8599C187.712 59.9995 189.718 58.6757 191.56 56.8886L199.75 65.824C194.751 71.5824 187.449 74.4615 177.844 74.4615C171.858 74.4615 166.562 73.3032 161.957 70.9867C157.352 68.6039 153.8 65.3276 151.3 61.1577C148.8 56.9879 147.55 52.2555 147.55 46.9604C147.55 41.7316 148.767 37.0322 151.201 32.8624C153.701 28.6263 157.089 25.35 161.365 23.0334C165.707 20.6507 170.542 19.4593 175.87 19.4593C181.067 19.4593 185.771 20.5845 189.981 22.8349C194.191 25.0853 197.481 28.3285 199.849 32.5645C202.283 36.7344 203.5 41.5992 203.5 47.159ZM175.969 31.1746C172.482 31.1746 169.555 32.1674 167.187 34.153C164.819 36.1387 163.371 38.8524 162.845 42.2942H188.994C188.468 38.9186 187.021 36.238 184.653 34.2523C182.284 32.2005 179.39 31.1746 175.969 31.1746Z" fill="#FFFFFE"/>
<path d="M288.962 47.0623H261.742V74.4615H241.563V47.0623H214.5V27.3993H241.563V0H261.742V27.3993H288.962V47.0623Z" fill="#EBCA67"/>
</svg>
