<svg width="289" height="135" viewBox="0 0 289 135" fill="none" xmlns="http://www.w3.org/2000/svg">
<path d="M16.4088 17.0765V35.4437H48.3802V48.3504H16.4088V73.6673H0.423096V4.16986H52.6233V17.0765H16.4088Z" fill="#FFFFFE"/>
<path d="M82.3275 19.4593C90.5506 19.4593 96.8659 21.4449 101.274 25.4162C105.681 29.3213 107.885 35.2451 107.885 43.1877V73.6673H93.478V67.0154C90.5835 71.9795 85.1891 74.4615 77.295 74.4615C73.2163 74.4615 69.6639 73.7666 66.6378 72.3766C63.6775 70.9867 61.4079 69.0672 59.8291 66.6183C58.2503 64.1693 57.4608 61.3894 57.4608 58.2786C57.4608 53.3145 59.3028 49.4094 62.9868 46.5633C66.7365 43.7172 72.4927 42.2942 80.2553 42.2942H92.4912C92.4912 38.9186 91.4716 36.3372 89.4323 34.5502C87.3929 32.6969 84.3339 31.7703 80.2553 31.7703C77.4265 31.7703 74.6307 32.2336 71.8677 33.1602C69.1705 34.0207 66.8681 35.212 64.9603 36.7344L59.4344 25.9126C62.3289 23.8608 65.7826 22.2723 69.7955 21.1471C73.8741 20.0219 78.0515 19.4593 82.3275 19.4593ZM81.1434 64.0369C83.7748 64.0369 86.1101 63.4412 88.1495 62.2498C90.1888 60.9923 91.636 59.1721 92.4912 56.7893V51.3288H81.9328C75.6174 51.3288 72.4598 53.4137 72.4598 57.5836C72.4598 59.5692 73.2163 61.1577 74.7293 62.3491C76.3082 63.4743 78.4462 64.0369 81.1434 64.0369Z" fill="#FFFFFE"/>
<path d="M121.817 0H137.211V73.6673H121.817V0Z" fill="#FFFFFE"/>
<path d="M203.5 47.159C203.5 47.3575 203.401 48.7475 203.204 51.3288H163.042C163.766 54.6382 165.476 57.2527 168.174 59.1721C170.871 61.0916 174.226 62.0513 178.239 62.0513C181.002 62.0513 183.436 61.6542 185.541 60.8599C187.712 59.9995 189.718 58.6757 191.56 56.8886L199.75 65.824C194.751 71.5824 187.449 74.4615 177.844 74.4615C171.858 74.4615 166.562 73.3032 161.957 70.9867C157.352 68.6039 153.8 65.3276 151.3 61.1577C148.8 56.9879 147.55 52.2555 147.55 46.9604C147.55 41.7316 148.767 37.0322 151.201 32.8624C153.701 28.6263 157.089 25.35 161.365 23.0334C165.707 20.6507 170.542 19.4593 175.87 19.4593C181.067 19.4593 185.771 20.5845 189.981 22.8349C194.191 25.0853 197.481 28.3285 199.849 32.5645C202.283 36.7344 203.5 41.5992 203.5 47.159ZM175.969 31.1746C172.482 31.1746 169.555 32.1674 167.187 34.153C164.819 36.1387 163.371 38.8524 162.845 42.2942H188.994C188.468 38.9186 187.021 36.238 184.653 34.2523C182.284 32.2005 179.39 31.1746 175.969 31.1746Z" fill="#FFFFFE"/>
<path d="M288.962 47.0623H261.742V74.4615H241.563V47.0623H214.5V27.3993H241.563V0H261.742V27.3993H288.962V47.0623Z" fill="#EBCA67"/>
<path d="M41.125 107.038C43.0276 107.038 44.7503 107.476 46.293 108.35C47.8358 109.198 49.0442 110.407 49.9184 111.975C50.7926 113.544 51.2297 115.331 51.2297 117.336C51.2297 119.367 50.7926 121.167 49.9184 122.736C49.0442 124.304 47.8358 125.525 46.293 126.399C44.776 127.248 43.0534 127.672 41.125 127.672C39.4794 127.672 37.9881 127.338 36.6511 126.669C35.3398 125.975 34.2599 124.972 33.4114 123.661V134.962H30.6731V107.193H33.2957V111.204C34.1185 109.867 35.1984 108.838 36.5354 108.118C37.8981 107.398 39.428 107.038 41.125 107.038ZM40.9321 125.242C42.3463 125.242 43.6319 124.921 44.7889 124.278C45.9459 123.61 46.8459 122.671 47.4886 121.463C48.1572 120.254 48.4914 118.879 48.4914 117.336C48.4914 115.793 48.1572 114.431 47.4886 113.248C46.8459 112.039 45.9459 111.101 44.7889 110.432C43.6319 109.764 42.3463 109.43 40.9321 109.43C39.4923 109.43 38.1938 109.764 37.0368 110.432C35.9055 111.101 35.0055 112.039 34.337 113.248C33.6942 114.431 33.3728 115.793 33.3728 117.336C33.3728 118.879 33.6942 120.254 34.337 121.463C35.0055 122.671 35.9055 123.61 37.0368 124.278C38.1938 124.921 39.4923 125.242 40.9321 125.242Z" fill="#EBCA67"/>
<path d="M65.1039 127.672C63.1498 127.672 61.3885 127.235 59.8201 126.361C58.2517 125.461 57.0175 124.227 56.1176 122.658C55.2177 121.09 54.7677 119.316 54.7677 117.336C54.7677 115.356 55.2177 113.582 56.1176 112.014C57.0175 110.445 58.2517 109.224 59.8201 108.35C61.3885 107.476 63.1498 107.038 65.1039 107.038C67.058 107.038 68.8192 107.476 70.3877 108.35C71.9561 109.224 73.1774 110.445 74.0516 112.014C74.9515 113.582 75.4015 115.356 75.4015 117.336C75.4015 119.316 74.9515 121.09 74.0516 122.658C73.1774 124.227 71.9561 125.461 70.3877 126.361C68.8192 127.235 67.058 127.672 65.1039 127.672ZM65.1039 125.242C66.5437 125.242 67.8293 124.921 68.9607 124.278C70.1177 123.61 71.0176 122.671 71.6604 121.463C72.3032 120.254 72.6246 118.879 72.6246 117.336C72.6246 115.793 72.3032 114.418 71.6604 113.209C71.0176 112.001 70.1177 111.075 68.9607 110.432C67.8293 109.764 66.5437 109.43 65.1039 109.43C63.664 109.43 62.3656 109.764 61.2085 110.432C60.0772 111.075 59.1773 112.001 58.5088 113.209C57.866 114.418 57.5446 115.793 57.5446 117.336C57.5446 118.879 57.866 120.254 58.5088 121.463C59.1773 122.671 60.0772 123.61 61.2085 124.278C62.3656 124.921 63.664 125.242 65.1039 125.242Z" fill="#EBCA67"/>
<path d="M83.6146 111.165C84.2574 109.802 85.2087 108.774 86.4686 108.08C87.7542 107.386 89.3355 107.038 91.2125 107.038V109.7L90.5568 109.661C88.4227 109.661 86.7515 110.317 85.543 111.628C84.3345 112.939 83.7303 114.778 83.7303 117.143V127.479H80.992V107.193H83.6146V111.165Z" fill="#EBCA67"/>
<path d="M131.866 107.038C134.412 107.038 136.404 107.771 137.844 109.237C139.31 110.702 140.043 112.862 140.043 115.716V127.479H137.304V115.986C137.304 113.878 136.79 112.271 135.762 111.165C134.759 110.06 133.332 109.507 131.481 109.507C129.372 109.507 127.714 110.162 126.505 111.474C125.297 112.759 124.693 114.546 124.693 116.835V127.479H121.954V115.986C121.954 113.878 121.44 112.271 120.412 111.165C119.409 110.06 117.969 109.507 116.092 109.507C114.009 109.507 112.351 110.162 111.117 111.474C109.908 112.759 109.304 114.546 109.304 116.835V127.479H106.566V107.193H109.188V110.895C109.908 109.661 110.911 108.71 112.197 108.041C113.482 107.373 114.961 107.038 116.632 107.038C118.329 107.038 119.795 107.398 121.029 108.118C122.289 108.838 123.227 109.905 123.844 111.319C124.59 109.982 125.657 108.941 127.045 108.195C128.459 107.424 130.066 107.038 131.866 107.038Z" fill="#EBCA67"/>
<path d="M165.208 118.185H148.238C148.393 120.293 149.202 122.003 150.668 123.314C152.134 124.6 153.985 125.242 156.222 125.242C157.482 125.242 158.639 125.024 159.693 124.587C160.747 124.124 161.66 123.455 162.431 122.581L163.974 124.355C163.074 125.435 161.943 126.258 160.58 126.824C159.243 127.389 157.764 127.672 156.145 127.672C154.062 127.672 152.211 127.235 150.591 126.361C148.997 125.461 147.75 124.227 146.85 122.658C145.95 121.09 145.5 119.316 145.5 117.336C145.5 115.356 145.924 113.582 146.773 112.014C147.647 110.445 148.83 109.224 150.321 108.35C151.838 107.476 153.535 107.038 155.412 107.038C157.289 107.038 158.973 107.476 160.464 108.35C161.956 109.224 163.125 110.445 163.974 112.014C164.822 113.556 165.247 115.331 165.247 117.336L165.208 118.185ZM155.412 109.391C153.458 109.391 151.812 110.021 150.475 111.281C149.164 112.515 148.418 114.135 148.238 116.14H162.624C162.444 114.135 161.686 112.515 160.349 111.281C159.037 110.021 157.392 109.391 155.412 109.391Z" fill="#EBCA67"/>
<path d="M181.156 107.038C183.702 107.038 185.72 107.784 187.212 109.275C188.729 110.741 189.487 112.888 189.487 115.716V127.479H186.749V115.986C186.749 113.878 186.222 112.271 185.167 111.165C184.113 110.06 182.609 109.507 180.655 109.507C178.47 109.507 176.734 110.162 175.448 111.474C174.189 112.759 173.559 114.546 173.559 116.835V127.479H170.82V107.193H173.443V110.934C174.189 109.7 175.217 108.748 176.528 108.08C177.865 107.386 179.408 107.038 181.156 107.038Z" fill="#EBCA67"/>
<path d="M205.289 127.672C203.335 127.672 201.573 127.235 200.005 126.361C198.437 125.461 197.202 124.227 196.302 122.658C195.403 121.09 194.953 119.316 194.953 117.336C194.953 115.356 195.403 113.582 196.302 112.014C197.202 110.445 198.437 109.224 200.005 108.35C201.573 107.476 203.335 107.038 205.289 107.038C207.243 107.038 209.004 107.476 210.573 108.35C212.141 109.224 213.362 110.445 214.236 112.014C215.136 113.582 215.586 115.356 215.586 117.336C215.586 119.316 215.136 121.09 214.236 122.658C213.362 124.227 212.141 125.461 210.573 126.361C209.004 127.235 207.243 127.672 205.289 127.672ZM205.289 125.242C206.729 125.242 208.014 124.921 209.146 124.278C210.303 123.61 211.202 122.671 211.845 121.463C212.488 120.254 212.809 118.879 212.809 117.336C212.809 115.793 212.488 114.418 211.845 113.209C211.202 112.001 210.303 111.075 209.146 110.432C208.014 109.764 206.729 109.43 205.289 109.43C203.849 109.43 202.55 109.764 201.393 110.432C200.262 111.075 199.362 112.001 198.694 113.209C198.051 114.418 197.729 115.793 197.729 117.336C197.729 118.879 198.051 120.254 198.694 121.463C199.362 122.671 200.262 123.61 201.393 124.278C202.55 124.921 203.849 125.242 205.289 125.242Z" fill="#EBCA67"/>
<path d="M226.615 127.672C224.969 127.672 223.388 127.441 221.871 126.978C220.38 126.489 219.21 125.885 218.361 125.165L219.596 123.006C220.444 123.674 221.511 124.227 222.797 124.664C224.082 125.075 225.419 125.281 226.808 125.281C228.659 125.281 230.022 124.998 230.896 124.433C231.796 123.841 232.246 123.018 232.246 121.964C232.246 121.219 232.002 120.64 231.513 120.229C231.024 119.792 230.407 119.47 229.662 119.264C228.916 119.033 227.926 118.814 226.692 118.609C225.046 118.3 223.722 117.992 222.72 117.683C221.717 117.349 220.855 116.796 220.136 116.025C219.441 115.253 219.094 114.186 219.094 112.824C219.094 111.127 219.801 109.738 221.215 108.658C222.63 107.578 224.597 107.038 227.116 107.038C228.428 107.038 229.739 107.218 231.05 107.578C232.362 107.913 233.441 108.363 234.29 108.928L233.094 111.127C231.423 109.97 229.43 109.391 227.116 109.391C225.368 109.391 224.044 109.7 223.144 110.317C222.27 110.934 221.833 111.744 221.833 112.746C221.833 113.518 222.077 114.135 222.565 114.598C223.08 115.061 223.709 115.408 224.455 115.639C225.201 115.845 226.229 116.063 227.541 116.295C229.16 116.603 230.459 116.912 231.436 117.22C232.413 117.529 233.249 118.056 233.943 118.802C234.637 119.547 234.984 120.576 234.984 121.887C234.984 123.661 234.238 125.075 232.747 126.13C231.282 127.158 229.238 127.672 226.615 127.672Z" fill="#EBCA67"/>
</svg>
